<?xml version="1.0" standalone="no"?>
<!DOCTYPE svg PUBLIC "-//W3C//DTD SVG 20010904//EN"
 "http://www.w3.org/TR/2001/REC-SVG-20010904/DTD/svg10.dtd">
<svg version="1.0" xmlns="http://www.w3.org/2000/svg"
 width="750.000000pt" height="750.000000pt" viewBox="0 0 750.000000 750.000000"
 preserveAspectRatio="xMidYMid meet">
<metadata>
Created by potrace 1.11, written by Peter Selinger 2001-2013
</metadata>
<g transform="translate(0.000000,750.000000) scale(0.100000,-0.100000)"
fill="#000000" stroke="none">
<path d="M5255 7103 c-81 -7 -272 -43 -355 -67 -147 -42 -374 -115 -394 -127
-16 -9 -85 -36 -242 -93 -18 -6 -38 -17 -45 -22 -8 -6 -54 -28 -104 -49 -85
-36 -127 -58 -256 -136 -133 -80 -201 -134 -314 -247 -147 -147 -185 -192
-219 -259 -14 -29 -29 -53 -32 -53 -3 0 -50 23 -104 51 -100 51 -173 76 -310
106 -96 21 -365 24 -465 4 -120 -23 -258 -61 -312 -87 -28 -13 -54 -24 -57
-24 -14 0 -179 -85 -239 -123 -378 -238 -637 -673 -731 -1226 -14 -80 -31
-173 -38 -206 -19 -96 -16 -669 5 -820 10 -66 29 -217 43 -335 34 -286 46
-360 83 -510 12 -47 35 -143 52 -215 18 -71 37 -141 44 -155 7 -14 27 -74 44
-135 18 -60 49 -155 71 -210 21 -55 51 -131 65 -170 29 -77 40 -103 55 -125 5
-8 26 -53 47 -100 20 -47 42 -92 49 -100 7 -8 27 -44 45 -80 42 -86 142 -245
216 -346 108 -145 349 -401 459 -484 25 -19 72 -56 105 -82 33 -27 64 -48 68
-48 5 0 25 -13 45 -29 46 -37 301 -163 386 -191 36 -11 76 -27 90 -34 40 -21
124 -43 273 -71 214 -39 484 -34 732 14 107 21 177 40 200 55 13 9 30 16 38
16 23 0 188 70 259 111 39 21 74 39 78 39 5 0 29 16 54 35 26 19 49 35 52 35
8 0 127 82 139 96 6 7 32 28 58 48 51 38 262 249 333 333 58 68 200 256 214
284 7 13 26 40 42 59 37 44 166 243 177 273 5 13 20 36 33 53 14 16 31 43 40
59 32 64 69 129 80 143 18 21 92 163 209 402 55 113 108 221 118 240 10 19 35
78 55 130 20 52 44 109 53 125 18 35 101 264 150 415 19 58 46 139 59 180 22
66 97 329 139 490 18 66 50 215 71 325 8 44 21 100 29 125 17 56 40 217 62
436 20 206 23 640 4 799 -19 169 -50 353 -71 425 -60 201 -95 308 -110 330 -9
14 -28 54 -43 90 -48 115 -130 235 -215 318 -36 34 -69 62 -74 62 -4 0 -25 15
-46 34 -71 64 -294 161 -447 195 -120 26 -352 37 -500 24z m435 -68 c134 -29
336 -105 397 -150 23 -16 60 -41 82 -55 36 -21 134 -111 192 -176 17 -19 52
-78 124 -209 27 -50 101 -239 126 -325 20 -67 52 -218 65 -305 3 -27 11 -61
16 -74 16 -44 38 -332 38 -511 0 -209 -14 -405 -40 -555 -10 -60 -26 -157 -35
-215 -9 -58 -20 -125 -25 -150 -5 -25 -14 -74 -20 -110 -7 -36 -18 -82 -26
-103 -8 -21 -23 -79 -35 -130 -39 -178 -71 -302 -79 -312 -7 -9 -67 -209 -89
-300 -4 -17 -13 -39 -19 -50 -6 -11 -32 -82 -56 -158 -25 -75 -52 -150 -61
-165 -8 -15 -31 -72 -51 -127 -19 -55 -42 -110 -50 -122 -7 -12 -27 -55 -43
-95 -27 -69 -98 -218 -157 -333 -104 -200 -124 -238 -134 -250 -6 -7 -32 -53
-57 -102 -25 -48 -57 -101 -70 -116 -12 -16 -23 -32 -23 -37 0 -7 -51 -91 -91
-151 -9 -13 -33 -49 -52 -79 -20 -30 -59 -88 -86 -129 -28 -40 -51 -75 -51
-77 0 -2 -12 -16 -26 -31 -15 -15 -40 -49 -56 -75 -16 -27 -35 -51 -42 -55 -6
-5 -27 -28 -46 -53 -75 -99 -295 -318 -385 -385 -22 -16 -53 -41 -70 -55 -16
-14 -59 -43 -95 -65 -36 -21 -88 -53 -117 -71 -28 -19 -55 -34 -59 -34 -4 0
-49 -20 -100 -45 -51 -25 -139 -59 -196 -75 -57 -17 -132 -39 -168 -49 -113
-34 -227 -46 -430 -46 -205 0 -307 12 -395 46 -28 10 -57 19 -64 19 -8 0 -28
4 -45 10 -121 37 -196 64 -226 80 -19 10 -69 32 -110 50 -41 18 -88 43 -105
54 -16 12 -64 42 -105 66 -41 25 -86 56 -100 69 -14 13 -38 32 -53 41 -70 44
-397 362 -397 387 0 4 -17 26 -37 48 -43 46 -119 155 -180 259 -24 39 -49 78
-57 87 -7 9 -32 56 -56 105 -24 49 -49 96 -56 104 -7 8 -34 66 -59 129 -26 63
-53 124 -60 135 -7 12 -29 73 -50 136 -20 63 -45 133 -55 155 -19 41 -31 79
-82 262 -16 60 -36 131 -44 158 -22 74 -42 176 -103 520 -57 320 -85 1007 -53
1280 19 161 39 271 62 345 11 36 34 112 51 170 16 58 41 128 54 155 13 28 38
84 56 125 17 41 42 89 55 107 13 17 24 34 24 37 0 9 79 128 93 140 8 6 31 33
53 60 51 64 132 141 214 202 71 54 166 114 178 114 5 0 29 13 53 30 52 34 275
113 399 142 181 42 480 31 595 -22 22 -10 51 -21 65 -26 121 -35 355 -185 451
-289 57 -61 121 -153 154 -222 21 -43 44 -85 50 -93 25 -31 81 -233 92 -332 6
-56 5 -58 -18 -58 -13 0 -46 7 -74 16 -27 9 -95 19 -150 24 -55 5 -140 12
-188 16 -110 9 -303 -10 -372 -37 -28 -10 -57 -19 -65 -19 -9 0 -50 -11 -91
-25 -148 -48 -225 -93 -202 -116 15 -15 71 1 148 42 59 31 222 72 352 90 170
22 606 -15 671 -57 40 -26 29 -64 -30 -104 -148 -101 -223 -122 -448 -123
-167 -1 -181 1 -300 32 -189 49 -172 47 -168 20 2 -18 13 -26 43 -35 47 -13
54 -32 27 -77 -30 -48 -48 -115 -35 -128 22 -22 51 9 73 78 27 82 35 92 60 86
24 -6 25 -28 5 -76 -20 -48 -20 -106 1 -114 25 -9 40 17 54 95 11 66 14 73 34
70 20 -3 21 -9 21 -91 0 -67 4 -90 15 -97 8 -5 19 -5 24 0 11 11 25 84 26 138
0 37 3 42 23 42 36 0 47 -19 48 -84 1 -82 10 -111 34 -111 19 0 20 6 16 93
l-3 92 31 0 c38 0 51 -26 51 -100 0 -32 6 -55 19 -71 l20 -24 9 24 c5 14 5 43
1 65 -5 23 -8 58 -9 79 0 37 0 37 39 37 43 0 44 -2 56 -77 8 -51 27 -78 49
-70 20 8 21 46 1 94 -22 52 -19 72 11 79 32 8 37 1 54 -81 13 -60 29 -83 51
-69 14 8 11 71 -6 111 -21 51 -20 83 4 83 12 0 22 -9 26 -22 22 -76 40 -110
63 -119 22 -8 24 -14 18 -47 -16 -95 -28 -308 -22 -407 10 -161 80 -407 133
-463 7 -7 31 -43 53 -80 47 -78 73 -111 226 -291 73 -85 114 -142 114 -156 0
-22 -50 -75 -70 -75 -5 0 -33 -11 -62 -24 -51 -22 -96 -33 -243 -56 -97 -16
-162 -38 -186 -63 -76 -80 -94 -211 -78 -556 5 -118 6 -218 2 -222 -5 -3 -37
-16 -73 -28 -36 -12 -81 -31 -101 -44 -108 -68 -229 -178 -229 -207 0 -17 42
-50 175 -141 100 -69 119 -77 199 -85 87 -9 171 17 197 60 23 38 25 117 4 150
-14 22 -13 27 20 81 39 65 44 108 19 156 -16 32 -81 68 -120 69 -12 0 -25 7
-28 16 -3 8 -9 124 -12 257 -7 251 1 358 32 422 20 43 107 79 239 99 189 29
266 57 325 116 29 29 40 48 40 71 0 35 -40 99 -114 180 -166 183 -317 405
-360 532 -8 25 -23 89 -32 143 -18 107 -16 343 6 594 15 164 6 372 -20 511
-29 153 -107 370 -156 434 -13 18 -24 35 -24 39 0 35 -174 226 -285 312 l-40
31 39 64 c127 208 350 406 606 539 48 25 93 50 101 56 8 7 65 33 128 59 62 25
121 51 130 56 9 6 79 33 156 60 77 28 158 57 180 66 43 16 352 100 425 115
141 29 452 31 580 3z m-1862 -2217 c-2 -42 -7 -72 -13 -71 -5 1 -19 27 -29 58
-19 56 -19 58 -1 71 39 29 46 19 43 -58z m18 -2643 c35 -54 -4 -132 -91 -178
-36 -19 -56 -21 -192 -21 -180 0 -202 8 -156 57 15 16 53 45 83 64 30 20 57
39 60 44 15 23 138 58 207 59 67 0 74 -2 89 -25z m-41 -250 c38 -37 32 -68
-17 -104 -37 -27 -50 -31 -106 -31 -59 0 -72 4 -152 51 -49 28 -96 59 -105 69
-17 19 -14 19 101 14 88 -4 135 -2 179 9 79 20 72 21 100 -8z"/>
<path d="M4347 5621 c-46 -10 -60 -22 -51 -45 6 -15 17 -16 104 -10 142 10
351 -18 515 -68 39 -12 77 -27 85 -33 8 -7 26 -16 40 -20 35 -11 161 -73 179
-88 9 -8 53 -35 99 -62 45 -26 82 -52 82 -56 0 -13 85 -59 108 -59 12 0 22 6
22 13 0 17 -28 41 -110 94 -36 23 -83 55 -105 71 -110 80 -391 202 -535 233
-129 28 -364 45 -433 30z"/>
<path d="M4684 5414 c-9 -13 -19 -50 -23 -82 -6 -53 -8 -57 -31 -57 -24 0 -25
2 -21 63 4 72 -9 98 -40 81 -15 -7 -19 -21 -19 -59 0 -69 -6 -80 -46 -80 -36
0 -37 1 -34 66 1 41 -19 72 -40 59 -5 -3 -10 -32 -10 -65 0 -66 1 -65 -86 -75
-51 -6 -144 -45 -144 -61 0 -13 57 -101 80 -125 14 -14 38 -44 54 -68 l29 -41
-20 -23 c-29 -33 -53 -74 -53 -91 0 -33 24 -25 72 25 40 42 53 51 67 42 27
-17 24 -46 -14 -108 -19 -33 -34 -64 -32 -70 8 -22 36 -15 58 15 60 79 76 93
93 87 33 -13 29 -38 -18 -107 -26 -38 -45 -74 -41 -80 11 -18 44 -10 62 16 82
116 88 122 117 101 17 -12 16 -17 -11 -95 -23 -67 -25 -84 -15 -94 11 -11 17
-9 33 10 10 13 23 40 29 60 14 53 37 82 65 82 13 0 26 -3 28 -7 3 -5 -4 -42
-14 -83 -11 -41 -18 -84 -17 -95 3 -23 28 -27 38 -5 32 65 50 114 50 135 0 29
14 39 46 31 27 -7 31 -38 13 -115 -12 -55 -4 -83 24 -79 23 3 33 30 45 118 6
51 9 55 36 58 44 5 50 -8 36 -84 -12 -62 -11 -68 6 -81 30 -22 47 6 52 82 5
69 17 89 54 83 21 -3 23 -8 23 -64 0 -68 17 -103 41 -83 9 8 14 34 14 80 0 74
-3 71 75 85 53 9 105 32 105 45 0 17 -21 51 -57 93 -18 22 -33 45 -33 52 0 6
17 27 38 45 48 42 56 57 42 75 -18 20 -22 18 -68 -26 -35 -35 -72 -52 -72 -34
0 3 18 28 40 54 22 26 40 53 40 59 0 25 -49 9 -90 -29 -23 -22 -47 -37 -51
-34 -19 11 -7 38 37 87 38 43 43 52 31 64 -19 19 -40 8 -82 -43 -20 -24 -45
-44 -56 -44 -10 0 -19 2 -19 5 0 11 27 52 58 88 35 40 36 45 23 66 -14 22 -35
7 -82 -58 -65 -88 -105 -81 -57 11 39 73 48 106 32 119 -21 17 -42 -6 -75 -78
-21 -48 -33 -63 -49 -63 -26 0 -36 24 -22 53 53 113 65 177 33 177 -20 0 -57
-65 -83 -145 -8 -25 -20 -41 -32 -43 -20 -4 -20 4 0 146 7 52 -4 68 -33 47
-19 -13 -23 -25 -40 -132 -5 -35 -31 -45 -50 -20 -9 10 -4 92 7 142 9 40 -24
54 -46 19z m-40 -205 c121 -23 167 -45 119 -59 -35 -10 -88 -49 -105 -77 -23
-40 -40 -110 -40 -165 1 -26 -3 -48 -8 -48 -19 0 -60 20 -78 38 -10 10 -39 33
-63 49 -51 36 -179 170 -179 188 0 7 -7 18 -15 25 -22 18 -5 32 53 46 63 15
241 17 316 3z m374 -133 c81 -41 232 -171 289 -249 31 -42 17 -63 -44 -71
-126 -16 -242 -18 -323 -6 -47 7 -89 16 -94 21 -5 4 14 31 41 61 34 36 58 73
73 115 21 60 22 64 6 103 -9 22 -16 43 -16 45 0 10 23 4 68 -19z"/>
</g>
</svg>
